<?xml version="1.0" encoding="UTF-8"?>
<svg version="1.1" xmlns="http://www.w3.org/2000/svg" width="50" height="50">
<path d="M0 0 C3.19246431 1.47344507 5.34194114 2.61749915 6.890625 5.87109375 C7.84549982 9.10909875 8.11786795 11.42375669 7.4375 14.75 C5.55967802 17.68919962 4.02709703 19.22322566 1 21 C-3.70314924 21.67187846 -6.57518144 21.74388566 -10.4375 18.875 C-13.32942352 15.63040288 -14.08631567 14.31578337 -14 10 C-12.80443782 6.08121286 -11.84610054 3.70889504 -8.6875 1.0625 C-5.43788871 -0.22223005 -3.4696436 -0.49566337 0 0 Z " fill="#000000" transform="translate(28,17)"/>
<path d="M0 0 C4.05222499 3.05180037 6.1864263 6.33463529 8.25390625 10.8671875 C8.50390625 14.3046875 8.50390625 14.3046875 8.25390625 16.8671875 C6.3671875 16.59765625 6.3671875 16.59765625 4.25390625 15.8671875 C3.234375 14.23046875 3.234375 14.23046875 2.44140625 12.1796875 C-0.16631979 6.48359573 -4.04791252 3.13016595 -9.68359375 0.4921875 C-16.45801438 -0.89034732 -22.72816048 -0.75560833 -28.74609375 2.8671875 C-33.1860879 6.8898222 -36.41008747 11.37070213 -38.74609375 16.8671875 C-39.73609375 16.8671875 -40.72609375 16.8671875 -41.74609375 16.8671875 C-42.58991062 11.38237786 -40.60279922 8.28823585 -37.5234375 3.984375 C-27.73031804 -7.681275 -12.23921616 -7.94043106 0 0 Z " fill="#000000" transform="translate(41.74609375,14.1328125)"/>
</svg>
