<?xml version="1.0" encoding="UTF-8"?>
<svg version="1.1" xmlns="http://www.w3.org/2000/svg" width="50" height="50">
<path d="M0 0 C1.98 0 3.96 0 6 0 C6.33 0.99 6.66 1.98 7 3 C16.9 3 26.8 3 37 3 C37 3.66 37 4.32 37 5 C27.1 5 17.2 5 7 5 C6.67 5.99 6.34 6.98 6 8 C4.02 8 2.04 8 0 8 C-0.33 7.01 -0.66 6.02 -1 5 C-3.64 5 -6.28 5 -9 5 C-9 4.34 -9 3.68 -9 3 C-6.36 3 -3.72 3 -1 3 C-0.67 2.01 -0.34 1.02 0 0 Z M2 3 C2 3.66 2 4.32 2 5 C2.66 5 3.32 5 4 5 C4 4.34 4 3.68 4 3 C3.34 3 2.68 3 2 3 Z " fill="#000000" transform="translate(11,35)"/>
<path d="M0 0 C1.98 0 3.96 0 6 0 C6.495 1.485 6.495 1.485 7 3 C8.65 3 10.3 3 12 3 C12 3.66 12 4.32 12 5 C10.35 5 8.7 5 7 5 C6.67 5.99 6.34 6.98 6 8 C4.02 8 2.04 8 0 8 C-0.495 6.515 -0.495 6.515 -1 5 C-11.89 5 -22.78 5 -34 5 C-34 4.34 -34 3.68 -34 3 C-23.11 3 -12.22 3 -1 3 C-0.67 2.01 -0.34 1.02 0 0 Z M2 3 C2 3.66 2 4.32 2 5 C2.66 5 3.32 5 4 5 C4 4.34 4 3.68 4 3 C3.34 3 2.68 3 2 3 Z " fill="#000000" transform="translate(36,21)"/>
<path d="M0 0 C1.98 0 3.96 0 6 0 C6.33 0.99 6.66 1.98 7 3 C13.27 3 19.54 3 26 3 C26 3.66 26 4.32 26 5 C19.73 5 13.46 5 7 5 C6.67 5.99 6.34 6.98 6 8 C4.02 8 2.04 8 0 8 C-0.33 7.01 -0.66 6.02 -1 5 C-7.27 5 -13.54 5 -20 5 C-20 4.34 -20 3.68 -20 3 C-13.73 3 -7.46 3 -1 3 C-0.67 2.01 -0.34 1.02 0 0 Z M2 3 C2 3.66 2 4.32 2 5 C2.66 5 3.32 5 4 5 C4 4.34 4 3.68 4 3 C3.34 3 2.68 3 2 3 Z " fill="#000000" transform="translate(22,7)"/>
</svg>
