<?xml version="1.0" encoding="UTF-8"?>
<svg version="1.1" xmlns="http://www.w3.org/2000/svg" width="50" height="50">
<path d="M0 0 C0.86367188 0.54527344 1.72734375 1.09054688 2.6171875 1.65234375 C3.40351562 2.09707031 4.18984375 2.54179688 5 3 C6.65 2.34 8.3 1.68 10 1 C10 4.63 10 8.26 10 12 C6.37 12 2.74 12 -1 12 C-0.01 10.35 0.98 8.7 2 7 C-2.26573309 4.86713346 -6.3056456 4.40974719 -11 5 C-15.69994029 6.71728588 -18.20959499 8.86606666 -21 13 C-22.676194 18.02858199 -22.60642735 22.34030411 -20.8125 27.25 C-18.18561967 31.23561154 -15.53058408 33.48980531 -11 35 C-5.38124276 35.3684431 -1.84288621 35.19190228 3 32 C7.10618972 28.01112998 8.45657807 23.36689899 10 18 C10.99 18 11.98 18 13 18 C13.6451282 24.77384611 12.88482622 28.5795425 8.74609375 34.046875 C4.9739984 38.26622103 2.2419633 39.69476885 -3.2421875 40.44140625 C-10.3618927 40.80121931 -15.57890814 40.29682547 -21.22265625 35.74609375 C-26.31807257 30.74026717 -27.26931732 27.16297651 -27.625 20.125 C-27.41275844 13.2454459 -25.82399741 8.91033294 -21 4 C-14.93134111 -1.18364613 -7.723983 -1.01343039 0 0 Z " fill="#000000" transform="translate(32,5)"/>
</svg>
